<?xml version="1.0" standalone="no"?>
<!DOCTYPE svg PUBLIC "-//W3C//DTD SVG 20010904//EN"
 "http://www.w3.org/TR/2001/REC-SVG-20010904/DTD/svg10.dtd">
<svg version="1.0" xmlns="http://www.w3.org/2000/svg"
 width="500.000000pt" height="500.000000pt" viewBox="0 0 500.000000 500.000000"
 preserveAspectRatio="xMidYMid meet">

<g transform="translate(0.000000,500.000000) scale(0.100000,-0.100000)"
fill="#000000" stroke="none">
<path d="M2350 4994 c-377 -32 -669 -112 -973 -266 -484 -245 -860 -621 -1105
-1105 -182 -359 -266 -715 -266 -1123 0 -408 84 -764 266 -1123 319 -631 878
-1091 1556 -1281 225 -64 422 -90 672 -90 512 0 965 138 1397 426 538 358 927
945 1052 1585 34 172 45 293 45 488 0 404 -85 760 -266 1118 -376 743 -1079
1242 -1907 1353 -108 14 -390 25 -471 18z m222 -808 c43 -72 250 -432 333
-576 39 -69 198 -343 352 -610 154 -267 285 -495 291 -507 11 -20 6 -25 -69
-69 -53 -31 -83 -43 -87 -36 -4 6 -79 137 -167 291 -88 154 -162 280 -165 281
-5 0 -31 -142 -71 -385 -5 -27 -12 -87 -15 -131 -6 -73 -4 -87 18 -136 50
-109 141 -170 258 -172 78 -1 99 7 262 101 69 40 130 73 135 73 5 0 20 -19 33
-42 13 -24 95 -166 182 -316 87 -151 158 -284 158 -297 0 -14 -11 -32 -26 -44
-27 -21 -28 -21 -1038 -19 l-1011 3 -3 93 -3 92 342 0 c299 0 340 2 329 15
-31 37 -385 323 -431 347 -42 23 -64 28 -123 28 -84 0 -142 -23 -199 -78 -75
-72 -81 -94 -87 -307 l-5 -190 -366 -3 c-358 -2 -367 -2 -392 19 -38 29 -34
56 22 151 26 46 92 160 146 253 54 94 123 213 153 265 30 52 65 113 78 136 74
133 577 1000 584 1007 9 10 160 -73 160 -88 0 -5 -74 -138 -165 -294 -90 -157
-163 -286 -162 -288 7 -6 496 181 530 203 112 74 156 237 97 359 -33 68 -79
107 -224 190 -75 43 -136 83 -136 88 0 7 243 433 337 590 34 57 36 58 76 55
37 -3 43 -7 69 -52z"/>
<path d="M2418 3795 c-55 -96 -73 -136 -65 -143 7 -5 39 -25 73 -45 186 -111
280 -326 229 -522 -32 -124 -96 -218 -192 -282 -33 -21 -115 -60 -184 -85 -68
-26 -223 -83 -344 -128 -469 -174 -520 -193 -524 -196 -2 -2 10 -11 27 -21 17
-10 51 -30 76 -45 l45 -27 -141 -243 c-77 -134 -144 -251 -149 -260 -9 -17 1
-18 151 -18 l160 0 0 88 c1 149 34 239 127 342 42 46 75 70 140 102 l86 43
121 0 c184 0 184 0 676 -410 l405 -337 3 86 3 86 299 2 300 3 -75 130 c-41 71
-78 131 -83 133 -5 1 -47 -17 -93 -41 -154 -81 -296 -85 -445 -12 -120 59
-224 188 -253 316 -23 96 -23 96 124 954 19 115 34 215 33 222 -2 7 -28 -4
-68 -28 -36 -21 -69 -39 -75 -39 -5 0 -75 115 -155 255 -80 140 -147 254 -150
254 -3 0 -40 -60 -82 -134z"/>
</g>
</svg>
