<?xml version="1.0" standalone="no"?>
<!DOCTYPE svg PUBLIC "-//W3C//DTD SVG 20010904//EN"
 "http://www.w3.org/TR/2001/REC-SVG-20010904/DTD/svg10.dtd">
<svg version="1.0" xmlns="http://www.w3.org/2000/svg"
 width="170.000000pt" height="170.000000pt" viewBox="0 0 170.000000 170.000000"
 preserveAspectRatio="xMidYMid meet">

<g transform="translate(0.000000,170.000000) scale(0.100000,-0.100000)"
fill="#000000" stroke="none">
<path d="M263 1195 c-102 -31 -185 -105 -231 -204 -23 -47 -27 -70 -27 -146 0
-82 3 -97 32 -156 100 -203 344 -268 531 -142 201 137 206 445 10 589 -89 66
-218 90 -315 59z m135 -147 c28 -48 32 -68 14 -68 -4 0 -16 16 -27 36 -18 33
-20 34 -32 18 -12 -16 -11 -21 6 -34 58 -45 25 -106 -79 -143 -37 -13 -64 -28
-62 -35 1 -7 -5 -26 -13 -42 -19 -37 -19 -40 3 -40 12 0 21 11 27 32 12 40 47
60 84 47 14 -6 51 -32 81 -59 l55 -49 -87 -1 c-72 0 -88 3 -88 15 0 11 12 15
51 15 l52 0 -38 30 c-55 44 -80 37 -87 -25 -3 -28 -6 -30 -52 -33 -27 -2 -52
0 -56 5 -5 4 22 60 58 123 87 150 83 143 94 132 6 -6 1 -23 -12 -46 -23 -38
-19 -43 27 -25 51 19 58 59 14 85 l-29 17 26 48 c15 27 30 49 34 49 3 0 20
-23 36 -52z m76 -132 c20 -35 36 -69 36 -75 0 -23 -20 -9 -42 30 -22 39 -23
40 -29 17 -15 -51 -10 -78 16 -90 19 -9 29 -8 49 5 24 16 25 16 50 -28 14 -24
26 -48 26 -54 0 -7 -24 -11 -60 -11 -47 0 -60 3 -60 15 0 11 11 15 40 15 37 0
40 2 30 20 -9 16 -15 18 -36 10 -32 -12 -79 10 -87 41 -8 28 15 169 27 169 2
0 20 -29 40 -64z"/>
<path d="M886 943 c-9 -49 -16 -94 -16 -100 0 -17 51 -16 84 1 33 17 62 11 81
-17 32 -45 5 -107 -45 -107 -28 0 -60 22 -60 41 0 5 -17 9 -39 9 -35 0 -38 -2
-34 -24 9 -44 57 -79 115 -83 63 -5 94 9 125 56 63 93 -20 221 -120 183 -17
-6 -32 -10 -34 -8 -2 2 0 19 5 37 l8 34 72 3 72 3 0 29 0 30 -99 0 -99 0 -16
-87z"/>
<path d="M1150 1000 c0 -28 3 -30 35 -30 32 0 35 2 35 30 0 28 -3 30 -35 30
-32 0 -35 -2 -35 -30z"/>
<path d="M1361 914 c-30 -25 -31 -25 -31 -5 0 17 -6 21 -35 21 l-36 0 3 -132
3 -133 31 -3 31 -3 5 87 c4 76 8 89 27 106 13 10 34 18 47 18 21 0 24 5 24 35
0 44 -24 47 -69 9z"/>
<path d="M1515 926 c-76 -34 -101 -130 -56 -214 24 -45 121 -68 174 -41 26 13
56 49 57 67 0 19 -49 14 -77 -8 -14 -11 -33 -20 -42 -20 -26 0 -61 29 -61 51
0 17 8 19 95 19 92 0 95 1 95 23 0 12 -9 41 -20 65 -29 64 -97 88 -165 58z
m93 -58 c26 -26 13 -38 -43 -38 -59 0 -60 1 -45 31 12 22 68 27 88 7z"/>
<path d="M1150 794 l0 -135 33 3 32 3 3 133 3 132 -36 0 -35 0 0 -136z"/>
</g>
</svg>
